<?xml version="1.0" encoding="utf-8" standalone="no"?>
<!DOCTYPE svg PUBLIC "-//W3C//DTD SVG 1.1//EN"
  "http://www.w3.org/Graphics/SVG/1.1/DTD/svg11.dtd">
<!-- Created with matplotlib (https://matplotlib.org/) -->
<svg height="262.272941pt" version="1.1" viewBox="0 0 411.359235 262.272941" width="411.359235pt" xmlns="http://www.w3.org/2000/svg" xmlns:xlink="http://www.w3.org/1999/xlink">
 <metadata>
  <rdf:RDF xmlns:cc="http://creativecommons.org/ns#" xmlns:dc="http://purl.org/dc/elements/1.1/" xmlns:rdf="http://www.w3.org/1999/02/22-rdf-syntax-ns#">
   <cc:Work>
    <dc:type rdf:resource="http://purl.org/dc/dcmitype/StillImage"/>
    <dc:date>2023-08-24T07:30:12.667739</dc:date>
    <dc:format>image/svg+xml</dc:format>
    <dc:creator>
     <cc:Agent>
      <dc:title>Matplotlib v3.3.4, https://matplotlib.org/</dc:title>
     </cc:Agent>
    </dc:creator>
   </cc:Work>
  </rdf:RDF>
 </metadata>
 <defs>
  <style type="text/css">*{stroke-linecap:butt;stroke-linejoin:round;}</style>
 </defs>
 <g id="figure_1">
  <g id="patch_1">
   <path d="M 0 262.272941 
L 411.359235 262.272941 
L 411.359235 0 
L 0 0 
z
" style="fill:none;"/>
  </g>
  <g id="axes_1">
   <g id="patch_2">
    <path d="M 56.50625 224.716691 
L 391.30625 224.716691 
L 391.30625 7.276691 
L 56.50625 7.276691 
z
" style="fill:#ffffff;"/>
   </g>
   <g id="PathCollection_1">
    <defs>
     <path d="M 0 3 
C 0.795609 3 1.55874 2.683901 2.12132 2.12132 
C 2.683901 1.55874 3 0.795609 3 0 
C 3 -0.795609 2.683901 -1.55874 2.12132 -2.12132 
C 1.55874 -2.683901 0.795609 -3 0 -3 
C -0.795609 -3 -1.55874 -2.683901 -2.12132 -2.12132 
C -2.683901 -1.55874 -3 -0.795609 -3 0 
C -3 0.795609 -2.683901 1.55874 -2.12132 2.12132 
C -1.55874 2.683901 -0.795609 3 0 3 
z
" id="me5e903b962" style="stroke:#1f77b4;"/>
    </defs>
    <g clip-path="url(#pf4373a3d85)">
     <use style="fill:#1f77b4;stroke:#1f77b4;" x="249.043696" xlink:href="#me5e903b962" y="89.167712"/>
     <use style="fill:#1f77b4;stroke:#1f77b4;" x="229.71373" xlink:href="#me5e903b962" y="135.419684"/>
     <use style="fill:#1f77b4;stroke:#1f77b4;" x="130.739677" xlink:href="#me5e903b962" y="149.66908"/>
     <use style="fill:#1f77b4;stroke:#1f77b4;" x="192.282254" xlink:href="#me5e903b962" y="128.307625"/>
     <use style="fill:#1f77b4;stroke:#1f77b4;" x="209.053766" xlink:href="#me5e903b962" y="126.772339"/>
     <use style="fill:#1f77b4;stroke:#1f77b4;" x="153.304438" xlink:href="#me5e903b962" y="179.193222"/>
     <use style="fill:#1f77b4;stroke:#1f77b4;" x="176.663056" xlink:href="#me5e903b962" y="176.052758"/>
     <use style="fill:#1f77b4;stroke:#1f77b4;" x="297.494327" xlink:href="#me5e903b962" y="94.260463"/>
     <use style="fill:#1f77b4;stroke:#1f77b4;" x="150.541836" xlink:href="#me5e903b962" y="207.697823"/>
     <use style="fill:#1f77b4;stroke:#1f77b4;" x="109.123986" xlink:href="#me5e903b962" y="163.984578"/>
     <use style="fill:#1f77b4;stroke:#1f77b4;" x="252.317867" xlink:href="#me5e903b962" y="101.590364"/>
     <use style="fill:#1f77b4;stroke:#1f77b4;" x="214.858384" xlink:href="#me5e903b962" y="188.472838"/>
     <use style="fill:#1f77b4;stroke:#1f77b4;" x="203.082326" xlink:href="#me5e903b962" y="118.888254"/>
     <use style="fill:#1f77b4;stroke:#1f77b4;" x="333.983335" xlink:href="#me5e903b962" y="87.665215"/>
     <use style="fill:#1f77b4;stroke:#1f77b4;" x="168.208399" xlink:href="#me5e903b962" y="138.937391"/>
     <use style="fill:#1f77b4;stroke:#1f77b4;" x="186.893893" xlink:href="#me5e903b962" y="138.733413"/>
     <use style="fill:#1f77b4;stroke:#1f77b4;" x="226.427924" xlink:href="#me5e903b962" y="166.002211"/>
     <use style="fill:#1f77b4;stroke:#1f77b4;" x="225.031181" xlink:href="#me5e903b962" y="63.570634"/>
     <use style="fill:#1f77b4;stroke:#1f77b4;" x="263.785866" xlink:href="#me5e903b962" y="117.774741"/>
     <use style="fill:#1f77b4;stroke:#1f77b4;" x="215.552988" xlink:href="#me5e903b962" y="121.777918"/>
     <use style="fill:#1f77b4;stroke:#1f77b4;" x="339.400849" xlink:href="#me5e903b962" y="86.749233"/>
     <use style="fill:#1f77b4;stroke:#1f77b4;" x="249.674431" xlink:href="#me5e903b962" y="78.002837"/>
     <use style="fill:#1f77b4;stroke:#1f77b4;" x="346.2966" xlink:href="#me5e903b962" y="49.100225"/>
     <use style="fill:#1f77b4;stroke:#1f77b4;" x="198.638908" xlink:href="#me5e903b962" y="150.384508"/>
     <use style="fill:#1f77b4;stroke:#1f77b4;" x="109.589549" xlink:href="#me5e903b962" y="177.21982"/>
     <use style="fill:#1f77b4;stroke:#1f77b4;" x="195.052924" xlink:href="#me5e903b962" y="136.651511"/>
     <use style="fill:#1f77b4;stroke:#1f77b4;" x="276.596669" xlink:href="#me5e903b962" y="104.528357"/>
     <use style="fill:#1f77b4;stroke:#1f77b4;" x="222.698839" xlink:href="#me5e903b962" y="81.829878"/>
     <use style="fill:#1f77b4;stroke:#1f77b4;" x="141.888249" xlink:href="#me5e903b962" y="214.833054"/>
     <use style="fill:#1f77b4;stroke:#1f77b4;" x="321.393001" xlink:href="#me5e903b962" y="79.665043"/>
     <use style="fill:#1f77b4;stroke:#1f77b4;" x="306.538826" xlink:href="#me5e903b962" y="159.499269"/>
     <use style="fill:#1f77b4;stroke:#1f77b4;" x="311.015895" xlink:href="#me5e903b962" y="118.439857"/>
     <use style="fill:#1f77b4;stroke:#1f77b4;" x="236.841291" xlink:href="#me5e903b962" y="143.938267"/>
     <use style="fill:#1f77b4;stroke:#1f77b4;" x="318.445259" xlink:href="#me5e903b962" y="112.348266"/>
     <use style="fill:#1f77b4;stroke:#1f77b4;" x="279.666133" xlink:href="#me5e903b962" y="86.685142"/>
     <use style="fill:#1f77b4;stroke:#1f77b4;" x="233.848236" xlink:href="#me5e903b962" y="92.639906"/>
     <use style="fill:#1f77b4;stroke:#1f77b4;" x="307.491331" xlink:href="#me5e903b962" y="111.226595"/>
     <use style="fill:#1f77b4;stroke:#1f77b4;" x="203.911192" xlink:href="#me5e903b962" y="129.189611"/>
     <use style="fill:#1f77b4;stroke:#1f77b4;" x="237.559936" xlink:href="#me5e903b962" y="139.80525"/>
     <use style="fill:#1f77b4;stroke:#1f77b4;" x="289.364742" xlink:href="#me5e903b962" y="73.938767"/>
     <use style="fill:#1f77b4;stroke:#1f77b4;" x="152.095603" xlink:href="#me5e903b962" y="164.748156"/>
     <use style="fill:#1f77b4;stroke:#1f77b4;" x="196.275789" xlink:href="#me5e903b962" y="132.212837"/>
     <use style="fill:#1f77b4;stroke:#1f77b4;" x="163.125941" xlink:href="#me5e903b962" y="157.722229"/>
     <use style="fill:#1f77b4;stroke:#1f77b4;" x="240.014453" xlink:href="#me5e903b962" y="162.238972"/>
     <use style="fill:#1f77b4;stroke:#1f77b4;" x="174.921594" xlink:href="#me5e903b962" y="164.214984"/>
     <use style="fill:#1f77b4;stroke:#1f77b4;" x="269.790879" xlink:href="#me5e903b962" y="150.131425"/>
     <use style="fill:#1f77b4;stroke:#1f77b4;" x="113.757761" xlink:href="#me5e903b962" y="178.650638"/>
     <use style="fill:#1f77b4;stroke:#1f77b4;" x="105.164556" xlink:href="#me5e903b962" y="140.585705"/>
     <use style="fill:#1f77b4;stroke:#1f77b4;" x="191.462121" xlink:href="#me5e903b962" y="152.957419"/>
     <use style="fill:#1f77b4;stroke:#1f77b4;" x="134.869923" xlink:href="#me5e903b962" y="144.226748"/>
     <use style="fill:#1f77b4;stroke:#1f77b4;" x="262.541622" xlink:href="#me5e903b962" y="107.785095"/>
     <use style="fill:#1f77b4;stroke:#1f77b4;" x="269.137594" xlink:href="#me5e903b962" y="140.446417"/>
     <use style="fill:#1f77b4;stroke:#1f77b4;" x="213.295191" xlink:href="#me5e903b962" y="191.814576"/>
     <use style="fill:#1f77b4;stroke:#1f77b4;" x="90.756269" xlink:href="#me5e903b962" y="178.119271"/>
     <use style="fill:#1f77b4;stroke:#1f77b4;" x="186.109168" xlink:href="#me5e903b962" y="121.003544"/>
     <use style="fill:#1f77b4;stroke:#1f77b4;" x="250.211611" xlink:href="#me5e903b962" y="156.785143"/>
     <use style="fill:#1f77b4;stroke:#1f77b4;" x="214.815866" xlink:href="#me5e903b962" y="109.044528"/>
     <use style="fill:#1f77b4;stroke:#1f77b4;" x="345.354159" xlink:href="#me5e903b962" y="81.759631"/>
     <use style="fill:#1f77b4;stroke:#1f77b4;" x="254.088083" xlink:href="#me5e903b962" y="58.943212"/>
     <use style="fill:#1f77b4;stroke:#1f77b4;" x="170.116258" xlink:href="#me5e903b962" y="42.567993"/>
     <use style="fill:#1f77b4;stroke:#1f77b4;" x="176.790848" xlink:href="#me5e903b962" y="200.094249"/>
     <use style="fill:#1f77b4;stroke:#1f77b4;" x="142.522178" xlink:href="#me5e903b962" y="213.802417"/>
     <use style="fill:#1f77b4;stroke:#1f77b4;" x="175.335667" xlink:href="#me5e903b962" y="135.584642"/>
     <use style="fill:#1f77b4;stroke:#1f77b4;" x="253.948284" xlink:href="#me5e903b962" y="103.089699"/>
     <use style="fill:#1f77b4;stroke:#1f77b4;" x="166.665414" xlink:href="#me5e903b962" y="125.568886"/>
     <use style="fill:#1f77b4;stroke:#1f77b4;" x="217.889057" xlink:href="#me5e903b962" y="194.51379"/>
     <use style="fill:#1f77b4;stroke:#1f77b4;" x="117.235681" xlink:href="#me5e903b962" y="152.864832"/>
     <use style="fill:#1f77b4;stroke:#1f77b4;" x="215.887857" xlink:href="#me5e903b962" y="129.162181"/>
     <use style="fill:#1f77b4;stroke:#1f77b4;" x="178.261471" xlink:href="#me5e903b962" y="182.174229"/>
     <use style="fill:#1f77b4;stroke:#1f77b4;" x="217.787889" xlink:href="#me5e903b962" y="83.214323"/>
     <use style="fill:#1f77b4;stroke:#1f77b4;" x="373.21583" xlink:href="#me5e903b962" y="17.160327"/>
     <use style="fill:#1f77b4;stroke:#1f77b4;" x="85.872714" xlink:href="#me5e903b962" y="211.968686"/>
     <use style="fill:#1f77b4;stroke:#1f77b4;" x="212.497448" xlink:href="#me5e903b962" y="204.367535"/>
     <use style="fill:#1f77b4;stroke:#1f77b4;" x="196.788263" xlink:href="#me5e903b962" y="154.609166"/>
     <use style="fill:#1f77b4;stroke:#1f77b4;" x="245.799183" xlink:href="#me5e903b962" y="130.380032"/>
     <use style="fill:#1f77b4;stroke:#1f77b4;" x="206.782498" xlink:href="#me5e903b962" y="112.034151"/>
     <use style="fill:#1f77b4;stroke:#1f77b4;" x="266.501905" xlink:href="#me5e903b962" y="114.017348"/>
     <use style="fill:#1f77b4;stroke:#1f77b4;" x="197.638375" xlink:href="#me5e903b962" y="168.301646"/>
     <use style="fill:#1f77b4;stroke:#1f77b4;" x="189.636368" xlink:href="#me5e903b962" y="99.197528"/>
     <use style="fill:#1f77b4;stroke:#1f77b4;" x="136.310063" xlink:href="#me5e903b962" y="178.814792"/>
     <use style="fill:#1f77b4;stroke:#1f77b4;" x="185.198036" xlink:href="#me5e903b962" y="111.811931"/>
     <use style="fill:#1f77b4;stroke:#1f77b4;" x="276.247184" xlink:href="#me5e903b962" y="156.990702"/>
     <use style="fill:#1f77b4;stroke:#1f77b4;" x="163.935212" xlink:href="#me5e903b962" y="159.512712"/>
     <use style="fill:#1f77b4;stroke:#1f77b4;" x="235.712113" xlink:href="#me5e903b962" y="129.687533"/>
     <use style="fill:#1f77b4;stroke:#1f77b4;" x="215.050764" xlink:href="#me5e903b962" y="140.526413"/>
     <use style="fill:#1f77b4;stroke:#1f77b4;" x="217.404405" xlink:href="#me5e903b962" y="138.175721"/>
     <use style="fill:#1f77b4;stroke:#1f77b4;" x="241.237079" xlink:href="#me5e903b962" y="51.871081"/>
     <use style="fill:#1f77b4;stroke:#1f77b4;" x="187.300778" xlink:href="#me5e903b962" y="145.396692"/>
     <use style="fill:#1f77b4;stroke:#1f77b4;" x="71.724432" xlink:href="#me5e903b962" y="178.857395"/>
     <use style="fill:#1f77b4;stroke:#1f77b4;" x="151.218522" xlink:href="#me5e903b962" y="180.353782"/>
     <use style="fill:#1f77b4;stroke:#1f77b4;" x="196.646121" xlink:href="#me5e903b962" y="146.97024"/>
     <use style="fill:#1f77b4;stroke:#1f77b4;" x="167.238695" xlink:href="#me5e903b962" y="181.385065"/>
     <use style="fill:#1f77b4;stroke:#1f77b4;" x="252.679946" xlink:href="#me5e903b962" y="137.124531"/>
     <use style="fill:#1f77b4;stroke:#1f77b4;" x="322.466216" xlink:href="#me5e903b962" y="101.168657"/>
     <use style="fill:#1f77b4;stroke:#1f77b4;" x="173.611669" xlink:href="#me5e903b962" y="165.704421"/>
     <use style="fill:#1f77b4;stroke:#1f77b4;" x="376.088068" xlink:href="#me5e903b962" y="85.9425"/>
     <use style="fill:#1f77b4;stroke:#1f77b4;" x="237.31178" xlink:href="#me5e903b962" y="113.068811"/>
     <use style="fill:#1f77b4;stroke:#1f77b4;" x="200.66801" xlink:href="#me5e903b962" y="71.861645"/>
     <use style="fill:#1f77b4;stroke:#1f77b4;" x="225.107697" xlink:href="#me5e903b962" y="162.768486"/>
     <use style="fill:#1f77b4;stroke:#1f77b4;" x="166.073123" xlink:href="#me5e903b962" y="123.550112"/>
    </g>
   </g>
   <g id="PathCollection_2">
    <defs>
     <path d="M 0 3 
C 0.795609 3 1.55874 2.683901 2.12132 2.12132 
C 2.683901 1.55874 3 0.795609 3 0 
C 3 -0.795609 2.683901 -1.55874 2.12132 -2.12132 
C 1.55874 -2.683901 0.795609 -3 0 -3 
C -0.795609 -3 -1.55874 -2.683901 -2.12132 -2.12132 
C -2.683901 -1.55874 -3 -0.795609 -3 0 
C -3 0.795609 -2.683901 1.55874 -2.12132 2.12132 
C -1.55874 2.683901 -0.795609 3 0 3 
z
" id="m166f647659" style="stroke:#ff0000;"/>
    </defs>
    <g clip-path="url(#pf4373a3d85)">
     <use style="fill:#ff0000;stroke:#ff0000;" x="170.116258" xlink:href="#m166f647659" y="42.567993"/>
    </g>
   </g>
   <g id="PathCollection_3">
    <g clip-path="url(#pf4373a3d85)">
     <use style="fill:#ff0000;stroke:#ff0000;" x="346.2966" xlink:href="#m166f647659" y="49.100225"/>
    </g>
   </g>
   <g id="matplotlib.axis_1">
    <g id="xtick_1">
     <g id="line2d_1">
      <defs>
       <path d="M 0 0 
L 0 3.5 
" id="m5db283cb54" style="stroke:#000000;stroke-width:0.8;"/>
      </defs>
      <g>
       <use style="stroke:#000000;stroke-width:0.8;" x="70.364482" xlink:href="#m5db283cb54" y="224.716691"/>
      </g>
     </g>
     <g id="text_1">
      <!-- 0.832 -->
      <g transform="translate(56.05042 239.315128)scale(0.1 -0.1)">
       <defs>
        <path d="M 31.78125 66.40625 
Q 24.171875 66.40625 20.328125 58.90625 
Q 16.5 51.421875 16.5 36.375 
Q 16.5 21.390625 20.328125 13.890625 
Q 24.171875 6.390625 31.78125 6.390625 
Q 39.453125 6.390625 43.28125 13.890625 
Q 47.125 21.390625 47.125 36.375 
Q 47.125 51.421875 43.28125 58.90625 
Q 39.453125 66.40625 31.78125 66.40625 
z
M 31.78125 74.21875 
Q 44.046875 74.21875 50.515625 64.515625 
Q 56.984375 54.828125 56.984375 36.375 
Q 56.984375 17.96875 50.515625 8.265625 
Q 44.046875 -1.421875 31.78125 -1.421875 
Q 19.53125 -1.421875 13.0625 8.265625 
Q 6.59375 17.96875 6.59375 36.375 
Q 6.59375 54.828125 13.0625 64.515625 
Q 19.53125 74.21875 31.78125 74.21875 
z
" id="DejaVuSans-48"/>
        <path d="M 10.6875 12.40625 
L 21 12.40625 
L 21 0 
L 10.6875 0 
z
" id="DejaVuSans-46"/>
        <path d="M 31.78125 34.625 
Q 24.75 34.625 20.71875 30.859375 
Q 16.703125 27.09375 16.703125 20.515625 
Q 16.703125 13.921875 20.71875 10.15625 
Q 24.75 6.390625 31.78125 6.390625 
Q 38.8125 6.390625 42.859375 10.171875 
Q 46.921875 13.96875 46.921875 20.515625 
Q 46.921875 27.09375 42.890625 30.859375 
Q 38.875 34.625 31.78125 34.625 
z
M 21.921875 38.8125 
Q 15.578125 40.375 12.03125 44.71875 
Q 8.5 49.078125 8.5 55.328125 
Q 8.5 64.0625 14.71875 69.140625 
Q 20.953125 74.21875 31.78125 74.21875 
Q 42.671875 74.21875 48.875 69.140625 
Q 55.078125 64.0625 55.078125 55.328125 
Q 55.078125 49.078125 51.53125 44.71875 
Q 48 40.375 41.703125 38.8125 
Q 48.828125 37.15625 52.796875 32.3125 
Q 56.78125 27.484375 56.78125 20.515625 
Q 56.78125 9.90625 50.3125 4.234375 
Q 43.84375 -1.421875 31.78125 -1.421875 
Q 19.734375 -1.421875 13.25 4.234375 
Q 6.78125 9.90625 6.78125 20.515625 
Q 6.78125 27.484375 10.78125 32.3125 
Q 14.796875 37.15625 21.921875 38.8125 
z
M 18.3125 54.390625 
Q 18.3125 48.734375 21.84375 45.5625 
Q 25.390625 42.390625 31.78125 42.390625 
Q 38.140625 42.390625 41.71875 45.5625 
Q 45.3125 48.734375 45.3125 54.390625 
Q 45.3125 60.0625 41.71875 63.234375 
Q 38.140625 66.40625 31.78125 66.40625 
Q 25.390625 66.40625 21.84375 63.234375 
Q 18.3125 60.0625 18.3125 54.390625 
z
" id="DejaVuSans-56"/>
        <path d="M 40.578125 39.3125 
Q 47.65625 37.796875 51.625 33 
Q 55.609375 28.21875 55.609375 21.1875 
Q 55.609375 10.40625 48.1875 4.484375 
Q 40.765625 -1.421875 27.09375 -1.421875 
Q 22.515625 -1.421875 17.65625 -0.515625 
Q 12.796875 0.390625 7.625 2.203125 
L 7.625 11.71875 
Q 11.71875 9.328125 16.59375 8.109375 
Q 21.484375 6.890625 26.8125 6.890625 
Q 36.078125 6.890625 40.9375 10.546875 
Q 45.796875 14.203125 45.796875 21.1875 
Q 45.796875 27.640625 41.28125 31.265625 
Q 36.765625 34.90625 28.71875 34.90625 
L 20.21875 34.90625 
L 20.21875 43.015625 
L 29.109375 43.015625 
Q 36.375 43.015625 40.234375 45.921875 
Q 44.09375 48.828125 44.09375 54.296875 
Q 44.09375 59.90625 40.109375 62.90625 
Q 36.140625 65.921875 28.71875 65.921875 
Q 24.65625 65.921875 20.015625 65.03125 
Q 15.375 64.15625 9.8125 62.3125 
L 9.8125 71.09375 
Q 15.4375 72.65625 20.34375 73.4375 
Q 25.25 74.21875 29.59375 74.21875 
Q 40.828125 74.21875 47.359375 69.109375 
Q 53.90625 64.015625 53.90625 55.328125 
Q 53.90625 49.265625 50.4375 45.09375 
Q 46.96875 40.921875 40.578125 39.3125 
z
" id="DejaVuSans-51"/>
        <path d="M 19.1875 8.296875 
L 53.609375 8.296875 
L 53.609375 0 
L 7.328125 0 
L 7.328125 8.296875 
Q 12.9375 14.109375 22.625 23.890625 
Q 32.328125 33.6875 34.8125 36.53125 
Q 39.546875 41.84375 41.421875 45.53125 
Q 43.3125 49.21875 43.3125 52.78125 
Q 43.3125 58.59375 39.234375 62.25 
Q 35.15625 65.921875 28.609375 65.921875 
Q 23.96875 65.921875 18.8125 64.3125 
Q 13.671875 62.703125 7.8125 59.421875 
L 7.8125 69.390625 
Q 13.765625 71.78125 18.9375 73 
Q 24.125 74.21875 28.421875 74.21875 
Q 39.75 74.21875 46.484375 68.546875 
Q 53.21875 62.890625 53.21875 53.421875 
Q 53.21875 48.921875 51.53125 44.890625 
Q 49.859375 40.875 45.40625 35.40625 
Q 44.1875 33.984375 37.640625 27.21875 
Q 31.109375 20.453125 19.1875 8.296875 
z
" id="DejaVuSans-50"/>
       </defs>
       <use xlink:href="#DejaVuSans-48"/>
       <use x="63.623047" xlink:href="#DejaVuSans-46"/>
       <use x="95.410156" xlink:href="#DejaVuSans-56"/>
       <use x="159.033203" xlink:href="#DejaVuSans-51"/>
       <use x="222.65625" xlink:href="#DejaVuSans-50"/>
      </g>
     </g>
    </g>
    <g id="xtick_2">
     <g id="line2d_2">
      <g>
       <use style="stroke:#000000;stroke-width:0.8;" x="123.611264" xlink:href="#m5db283cb54" y="224.716691"/>
      </g>
     </g>
     <g id="text_2">
      <!-- 0.834 -->
      <g transform="translate(109.297202 239.315128)scale(0.1 -0.1)">
       <defs>
        <path d="M 37.796875 64.3125 
L 12.890625 25.390625 
L 37.796875 25.390625 
z
M 35.203125 72.90625 
L 47.609375 72.90625 
L 47.609375 25.390625 
L 58.015625 25.390625 
L 58.015625 17.1875 
L 47.609375 17.1875 
L 47.609375 0 
L 37.796875 0 
L 37.796875 17.1875 
L 4.890625 17.1875 
L 4.890625 26.703125 
z
" id="DejaVuSans-52"/>
       </defs>
       <use xlink:href="#DejaVuSans-48"/>
       <use x="63.623047" xlink:href="#DejaVuSans-46"/>
       <use x="95.410156" xlink:href="#DejaVuSans-56"/>
       <use x="159.033203" xlink:href="#DejaVuSans-51"/>
       <use x="222.65625" xlink:href="#DejaVuSans-52"/>
      </g>
     </g>
    </g>
    <g id="xtick_3">
     <g id="line2d_3">
      <g>
       <use style="stroke:#000000;stroke-width:0.8;" x="176.858046" xlink:href="#m5db283cb54" y="224.716691"/>
      </g>
     </g>
     <g id="text_3">
      <!-- 0.836 -->
      <g transform="translate(162.543983 239.315128)scale(0.1 -0.1)">
       <defs>
        <path d="M 33.015625 40.375 
Q 26.375 40.375 22.484375 35.828125 
Q 18.609375 31.296875 18.609375 23.390625 
Q 18.609375 15.53125 22.484375 10.953125 
Q 26.375 6.390625 33.015625 6.390625 
Q 39.65625 6.390625 43.53125 10.953125 
Q 47.40625 15.53125 47.40625 23.390625 
Q 47.40625 31.296875 43.53125 35.828125 
Q 39.65625 40.375 33.015625 40.375 
z
M 52.59375 71.296875 
L 52.59375 62.3125 
Q 48.875 64.0625 45.09375 64.984375 
Q 41.3125 65.921875 37.59375 65.921875 
Q 27.828125 65.921875 22.671875 59.328125 
Q 17.53125 52.734375 16.796875 39.40625 
Q 19.671875 43.65625 24.015625 45.921875 
Q 28.375 48.1875 33.59375 48.1875 
Q 44.578125 48.1875 50.953125 41.515625 
Q 57.328125 34.859375 57.328125 23.390625 
Q 57.328125 12.15625 50.6875 5.359375 
Q 44.046875 -1.421875 33.015625 -1.421875 
Q 20.359375 -1.421875 13.671875 8.265625 
Q 6.984375 17.96875 6.984375 36.375 
Q 6.984375 53.65625 15.1875 63.9375 
Q 23.390625 74.21875 37.203125 74.21875 
Q 40.921875 74.21875 44.703125 73.484375 
Q 48.484375 72.75 52.59375 71.296875 
z
" id="DejaVuSans-54"/>
       </defs>
       <use xlink:href="#DejaVuSans-48"/>
       <use x="63.623047" xlink:href="#DejaVuSans-46"/>
       <use x="95.410156" xlink:href="#DejaVuSans-56"/>
       <use x="159.033203" xlink:href="#DejaVuSans-51"/>
       <use x="222.65625" xlink:href="#DejaVuSans-54"/>
      </g>
     </g>
    </g>
    <g id="xtick_4">
     <g id="line2d_4">
      <g>
       <use style="stroke:#000000;stroke-width:0.8;" x="230.104828" xlink:href="#m5db283cb54" y="224.716691"/>
      </g>
     </g>
     <g id="text_4">
      <!-- 0.838 -->
      <g transform="translate(215.790765 239.315128)scale(0.1 -0.1)">
       <use xlink:href="#DejaVuSans-48"/>
       <use x="63.623047" xlink:href="#DejaVuSans-46"/>
       <use x="95.410156" xlink:href="#DejaVuSans-56"/>
       <use x="159.033203" xlink:href="#DejaVuSans-51"/>
       <use x="222.65625" xlink:href="#DejaVuSans-56"/>
      </g>
     </g>
    </g>
    <g id="xtick_5">
     <g id="line2d_5">
      <g>
       <use style="stroke:#000000;stroke-width:0.8;" x="283.351609" xlink:href="#m5db283cb54" y="224.716691"/>
      </g>
     </g>
     <g id="text_5">
      <!-- 0.840 -->
      <g transform="translate(269.037547 239.315128)scale(0.1 -0.1)">
       <use xlink:href="#DejaVuSans-48"/>
       <use x="63.623047" xlink:href="#DejaVuSans-46"/>
       <use x="95.410156" xlink:href="#DejaVuSans-56"/>
       <use x="159.033203" xlink:href="#DejaVuSans-52"/>
       <use x="222.65625" xlink:href="#DejaVuSans-48"/>
      </g>
     </g>
    </g>
    <g id="xtick_6">
     <g id="line2d_6">
      <g>
       <use style="stroke:#000000;stroke-width:0.8;" x="336.598391" xlink:href="#m5db283cb54" y="224.716691"/>
      </g>
     </g>
     <g id="text_6">
      <!-- 0.842 -->
      <g transform="translate(322.284329 239.315128)scale(0.1 -0.1)">
       <use xlink:href="#DejaVuSans-48"/>
       <use x="63.623047" xlink:href="#DejaVuSans-46"/>
       <use x="95.410156" xlink:href="#DejaVuSans-56"/>
       <use x="159.033203" xlink:href="#DejaVuSans-52"/>
       <use x="222.65625" xlink:href="#DejaVuSans-50"/>
      </g>
     </g>
    </g>
    <g id="xtick_7">
     <g id="line2d_7">
      <g>
       <use style="stroke:#000000;stroke-width:0.8;" x="389.845173" xlink:href="#m5db283cb54" y="224.716691"/>
      </g>
     </g>
     <g id="text_7">
      <!-- 0.844 -->
      <g transform="translate(375.53111 239.315128)scale(0.1 -0.1)">
       <use xlink:href="#DejaVuSans-48"/>
       <use x="63.623047" xlink:href="#DejaVuSans-46"/>
       <use x="95.410156" xlink:href="#DejaVuSans-56"/>
       <use x="159.033203" xlink:href="#DejaVuSans-52"/>
       <use x="222.65625" xlink:href="#DejaVuSans-52"/>
      </g>
     </g>
    </g>
    <g id="text_8">
     <!-- BLEU-1 -->
     <g transform="translate(205.885938 252.993253)scale(0.1 -0.1)">
      <defs>
       <path d="M 19.671875 34.8125 
L 19.671875 8.109375 
L 35.5 8.109375 
Q 43.453125 8.109375 47.28125 11.40625 
Q 51.125 14.703125 51.125 21.484375 
Q 51.125 28.328125 47.28125 31.5625 
Q 43.453125 34.8125 35.5 34.8125 
z
M 19.671875 64.796875 
L 19.671875 42.828125 
L 34.28125 42.828125 
Q 41.5 42.828125 45.03125 45.53125 
Q 48.578125 48.25 48.578125 53.8125 
Q 48.578125 59.328125 45.03125 62.0625 
Q 41.5 64.796875 34.28125 64.796875 
z
M 9.8125 72.90625 
L 35.015625 72.90625 
Q 46.296875 72.90625 52.390625 68.21875 
Q 58.5 63.53125 58.5 54.890625 
Q 58.5 48.1875 55.375 44.234375 
Q 52.25 40.28125 46.1875 39.3125 
Q 53.46875 37.75 57.5 32.78125 
Q 61.53125 27.828125 61.53125 20.40625 
Q 61.53125 10.640625 54.890625 5.3125 
Q 48.25 0 35.984375 0 
L 9.8125 0 
z
" id="DejaVuSans-66"/>
       <path d="M 9.8125 72.90625 
L 19.671875 72.90625 
L 19.671875 8.296875 
L 55.171875 8.296875 
L 55.171875 0 
L 9.8125 0 
z
" id="DejaVuSans-76"/>
       <path d="M 9.8125 72.90625 
L 55.90625 72.90625 
L 55.90625 64.59375 
L 19.671875 64.59375 
L 19.671875 43.015625 
L 54.390625 43.015625 
L 54.390625 34.71875 
L 19.671875 34.71875 
L 19.671875 8.296875 
L 56.78125 8.296875 
L 56.78125 0 
L 9.8125 0 
z
" id="DejaVuSans-69"/>
       <path d="M 8.6875 72.90625 
L 18.609375 72.90625 
L 18.609375 28.609375 
Q 18.609375 16.890625 22.84375 11.734375 
Q 27.09375 6.59375 36.625 6.59375 
Q 46.09375 6.59375 50.34375 11.734375 
Q 54.59375 16.890625 54.59375 28.609375 
L 54.59375 72.90625 
L 64.5 72.90625 
L 64.5 27.390625 
Q 64.5 13.140625 57.4375 5.859375 
Q 50.390625 -1.421875 36.625 -1.421875 
Q 22.796875 -1.421875 15.734375 5.859375 
Q 8.6875 13.140625 8.6875 27.390625 
z
" id="DejaVuSans-85"/>
       <path d="M 4.890625 31.390625 
L 31.203125 31.390625 
L 31.203125 23.390625 
L 4.890625 23.390625 
z
" id="DejaVuSans-45"/>
       <path d="M 12.40625 8.296875 
L 28.515625 8.296875 
L 28.515625 63.921875 
L 10.984375 60.40625 
L 10.984375 69.390625 
L 28.421875 72.90625 
L 38.28125 72.90625 
L 38.28125 8.296875 
L 54.390625 8.296875 
L 54.390625 0 
L 12.40625 0 
z
" id="DejaVuSans-49"/>
      </defs>
      <use xlink:href="#DejaVuSans-66"/>
      <use x="68.603516" xlink:href="#DejaVuSans-76"/>
      <use x="124.316406" xlink:href="#DejaVuSans-69"/>
      <use x="187.5" xlink:href="#DejaVuSans-85"/>
      <use x="260.693359" xlink:href="#DejaVuSans-45"/>
      <use x="296.777344" xlink:href="#DejaVuSans-49"/>
     </g>
    </g>
   </g>
   <g id="matplotlib.axis_2">
    <g id="ytick_1">
     <g id="line2d_8">
      <defs>
       <path d="M 0 0 
L -3.5 0 
" id="m20a3064cc3" style="stroke:#000000;stroke-width:0.8;"/>
      </defs>
      <g>
       <use style="stroke:#000000;stroke-width:0.8;" x="56.50625" xlink:href="#m20a3064cc3" y="198.100322"/>
      </g>
     </g>
     <g id="text_9">
      <!-- 0.410 -->
      <g transform="translate(20.878125 201.899541)scale(0.1 -0.1)">
       <use xlink:href="#DejaVuSans-48"/>
       <use x="63.623047" xlink:href="#DejaVuSans-46"/>
       <use x="95.410156" xlink:href="#DejaVuSans-52"/>
       <use x="159.033203" xlink:href="#DejaVuSans-49"/>
       <use x="222.65625" xlink:href="#DejaVuSans-48"/>
      </g>
     </g>
    </g>
    <g id="ytick_2">
     <g id="line2d_9">
      <g>
       <use style="stroke:#000000;stroke-width:0.8;" x="56.50625" xlink:href="#m20a3064cc3" y="151.325046"/>
      </g>
     </g>
     <g id="text_10">
      <!-- 0.415 -->
      <g transform="translate(20.878125 155.124265)scale(0.1 -0.1)">
       <defs>
        <path d="M 10.796875 72.90625 
L 49.515625 72.90625 
L 49.515625 64.59375 
L 19.828125 64.59375 
L 19.828125 46.734375 
Q 21.96875 47.46875 24.109375 47.828125 
Q 26.265625 48.1875 28.421875 48.1875 
Q 40.625 48.1875 47.75 41.5 
Q 54.890625 34.8125 54.890625 23.390625 
Q 54.890625 11.625 47.5625 5.09375 
Q 40.234375 -1.421875 26.90625 -1.421875 
Q 22.3125 -1.421875 17.546875 -0.640625 
Q 12.796875 0.140625 7.71875 1.703125 
L 7.71875 11.625 
Q 12.109375 9.234375 16.796875 8.0625 
Q 21.484375 6.890625 26.703125 6.890625 
Q 35.15625 6.890625 40.078125 11.328125 
Q 45.015625 15.765625 45.015625 23.390625 
Q 45.015625 31 40.078125 35.4375 
Q 35.15625 39.890625 26.703125 39.890625 
Q 22.75 39.890625 18.8125 39.015625 
Q 14.890625 38.140625 10.796875 36.28125 
z
" id="DejaVuSans-53"/>
       </defs>
       <use xlink:href="#DejaVuSans-48"/>
       <use x="63.623047" xlink:href="#DejaVuSans-46"/>
       <use x="95.410156" xlink:href="#DejaVuSans-52"/>
       <use x="159.033203" xlink:href="#DejaVuSans-49"/>
       <use x="222.65625" xlink:href="#DejaVuSans-53"/>
      </g>
     </g>
    </g>
    <g id="ytick_3">
     <g id="line2d_10">
      <g>
       <use style="stroke:#000000;stroke-width:0.8;" x="56.50625" xlink:href="#m20a3064cc3" y="104.54977"/>
      </g>
     </g>
     <g id="text_11">
      <!-- 0.420 -->
      <g transform="translate(20.878125 108.348989)scale(0.1 -0.1)">
       <use xlink:href="#DejaVuSans-48"/>
       <use x="63.623047" xlink:href="#DejaVuSans-46"/>
       <use x="95.410156" xlink:href="#DejaVuSans-52"/>
       <use x="159.033203" xlink:href="#DejaVuSans-50"/>
       <use x="222.65625" xlink:href="#DejaVuSans-48"/>
      </g>
     </g>
    </g>
    <g id="ytick_4">
     <g id="line2d_11">
      <g>
       <use style="stroke:#000000;stroke-width:0.8;" x="56.50625" xlink:href="#m20a3064cc3" y="57.774495"/>
      </g>
     </g>
     <g id="text_12">
      <!-- 0.425 -->
      <g transform="translate(20.878125 61.573713)scale(0.1 -0.1)">
       <use xlink:href="#DejaVuSans-48"/>
       <use x="63.623047" xlink:href="#DejaVuSans-46"/>
       <use x="95.410156" xlink:href="#DejaVuSans-52"/>
       <use x="159.033203" xlink:href="#DejaVuSans-50"/>
       <use x="222.65625" xlink:href="#DejaVuSans-53"/>
      </g>
     </g>
    </g>
    <g id="ytick_5">
     <g id="line2d_12">
      <g>
       <use style="stroke:#000000;stroke-width:0.8;" x="56.50625" xlink:href="#m20a3064cc3" y="10.999219"/>
      </g>
     </g>
     <g id="text_13">
      <!-- 0.430 -->
      <g transform="translate(20.878125 14.798437)scale(0.1 -0.1)">
       <use xlink:href="#DejaVuSans-48"/>
       <use x="63.623047" xlink:href="#DejaVuSans-46"/>
       <use x="95.410156" xlink:href="#DejaVuSans-52"/>
       <use x="159.033203" xlink:href="#DejaVuSans-51"/>
       <use x="222.65625" xlink:href="#DejaVuSans-48"/>
      </g>
     </g>
    </g>
    <g id="text_14">
     <!-- BLEU-4 -->
     <g transform="translate(14.798437 134.017003)rotate(-90)scale(0.1 -0.1)">
      <use xlink:href="#DejaVuSans-66"/>
      <use x="68.603516" xlink:href="#DejaVuSans-76"/>
      <use x="124.316406" xlink:href="#DejaVuSans-69"/>
      <use x="187.5" xlink:href="#DejaVuSans-85"/>
      <use x="260.693359" xlink:href="#DejaVuSans-45"/>
      <use x="296.777344" xlink:href="#DejaVuSans-52"/>
     </g>
    </g>
   </g>
   <g id="patch_3">
    <path d="M 56.50625 224.716691 
L 56.50625 7.276691 
" style="fill:none;stroke:#000000;stroke-linecap:square;stroke-linejoin:miter;stroke-width:0.8;"/>
   </g>
   <g id="patch_4">
    <path d="M 391.30625 224.716691 
L 391.30625 7.276691 
" style="fill:none;stroke:#000000;stroke-linecap:square;stroke-linejoin:miter;stroke-width:0.8;"/>
   </g>
   <g id="patch_5">
    <path d="M 56.50625 224.716691 
L 391.30625 224.716691 
" style="fill:none;stroke:#000000;stroke-linecap:square;stroke-linejoin:miter;stroke-width:0.8;"/>
   </g>
   <g id="patch_6">
    <path d="M 56.50625 7.276691 
L 391.30625 7.276691 
" style="fill:none;stroke:#000000;stroke-linecap:square;stroke-linejoin:miter;stroke-width:0.8;"/>
   </g>
  </g>
 </g>
 <defs>
  <clipPath id="pf4373a3d85">
   <rect height="217.44" width="334.8" x="56.50625" y="7.276691"/>
  </clipPath>
 </defs>
</svg>
